<?xml version="1.0" encoding="UTF-8" standalone="no"?>
<svg
   xmlns:dc="http://purl.org/dc/elements/1.1/"
   xmlns:cc="http://creativecommons.org/ns#"
   xmlns:rdf="http://www.w3.org/1999/02/22-rdf-syntax-ns#"
   xmlns:svg="http://www.w3.org/2000/svg"
   xmlns="http://www.w3.org/2000/svg"
   xmlns:sodipodi="http://sodipodi.sourceforge.net/DTD/sodipodi-0.dtd"
   xmlns:inkscape="http://www.inkscape.org/namespaces/inkscape"
   version="1.1"
   id="svg2"
   xml:space="preserve"
   width="1280"
   height="720"
   viewBox="0 0 1280 720"
   sodipodi:docname="fanart.svg"
   inkscape:version="1.0.1 (3bc2e813f5, 2020-09-07)"><metadata
     id="metadata8"><rdf:RDF><cc:Work
         rdf:about=""><dc:format>image/svg+xml</dc:format><dc:type
           rdf:resource="http://purl.org/dc/dcmitype/StillImage" /><dc:title></dc:title></cc:Work></rdf:RDF></metadata><defs
     id="defs6" /><sodipodi:namedview
     pagecolor="#ffffff"
     bordercolor="#666666"
     borderopacity="1"
     objecttolerance="10"
     gridtolerance="10"
     guidetolerance="10"
     inkscape:pageopacity="0"
     inkscape:pageshadow="2"
     inkscape:window-width="1920"
     inkscape:window-height="1016"
     id="namedview4"
     showgrid="false"
     fit-margin-top="0"
     fit-margin-left="0"
     fit-margin-right="0"
     fit-margin-bottom="0"
     inkscape:zoom="0.60729103"
     inkscape:cx="485.72112"
     inkscape:cy="317.50461"
     inkscape:window-x="0"
     inkscape:window-y="0"
     inkscape:window-maximized="1"
     inkscape:current-layer="g10" /><g
     id="g10"
     inkscape:groupmode="layer"
     inkscape:label="ink_ext_XXXXXX"
     transform="matrix(1.3333333,0,0,-1.3333333,-459.15888,1296.0031)"><g
       id="g1503"><rect
         style="fill:#fa481c;fill-opacity:1;stroke-width:0.243117;stroke-opacity:0.488353;stop-color:#000000"
         id="rect840"
         width="960"
         height="540"
         x="344.36917"
         y="-972.00238"
         transform="scale(1,-1)" /><path
         d="m 1000.0577,692.12437 c -0.046,0.0751 1.8332,17.89447 -19.06591,17.92008 -20.1461,0.10368 -17.9364,-17.84507 -17.9272,-17.92008 h 36.99311 m -19.06591,45.03489 c 73.23011,-0.80671 61.38561,-67.00675 61.34861,-67.0968 h -78.12471 v -22.06008 h -31.9411 c 0.099,0.004 -13.1067,11.88306 -12.866,35.38649 0.4753,54.76473 59.2809,53.82007 61.5832,53.77039 m -90.7802,18.84312 H 846.5559 V 735.32211 H 828.40126 V 708.43689 H 846.5559 V 672.819 c 0.0358,-7.68068 -0.12744,-13.94824 5.51148,-19.98132 4.93066,-5.04603 11.39357,-4.80722 19.07431,-4.8353 h 19.0699 v 60.43451 h 26.1973 v 26.88522 h -26.1973 z m -88.01132,-19.07212 c -14.4405,-2.11305 -19.51004,-14.04763 -19.52979,-14.01831 v 12.41077 h -40.44245 v -87.32034 h 44.11769 v 41.82501 c 0.0515,7.38629 2.12109,10.69983 4.82512,13.32611 3.0463,3.13054 8.38834,5.32105 14.24822,5.28278 h 12.40675 v 26.88644 c -0.0108,0.0376 -6.37126,2.96019 -15.62554,1.60754 m -132.64656,0.91935 c 24.61754,-0.0677 54.91782,-6.72924 54.91782,-31.25172 v -58.59551 h -43.42702 v 25.27832 c -0.0256,0.0756 -10.53966,-3.72505 -18.61414,-6.20804 -5.43616,-1.4965 -9.55118,-4.56464 -9.87953,-10.1083 -0.42372,-4.66977 4.87697,-8.95764 4.82542,-8.96198 h -42.51165 c -0.0538,0.004 -9.47927,3.40205 -9.18875,13.56402 0.87545,19.36655 15.95807,26.4908 53.08112,30.78265 20.00135,2.46796 22.26192,4.39799 22.28753,9.42217 -0.0256,4.12274 -2.45932,8.79077 -13.78717,8.96359 -16.32794,-0.005 -15.18793,-11.05782 -15.16788,-11.02941 h -41.59035 c -0.0877,0.0162 0.40178,38.10256 59.0546,38.14421"
         style="fill:#ffffff;fill-opacity:1;fill-rule:nonzero;stroke:none;stroke-width:0.030861"
         id="path14" /></g></g></svg>
