<?xml version="1.0" encoding="UTF-8" standalone="no"?>
<svg
   xmlns:dc="http://purl.org/dc/elements/1.1/"
   xmlns:cc="http://creativecommons.org/ns#"
   xmlns:rdf="http://www.w3.org/1999/02/22-rdf-syntax-ns#"
   xmlns:svg="http://www.w3.org/2000/svg"
   xmlns="http://www.w3.org/2000/svg"
   xmlns:sodipodi="http://sodipodi.sourceforge.net/DTD/sodipodi-0.dtd"
   xmlns:inkscape="http://www.inkscape.org/namespaces/inkscape"
   version="1.1"
   id="svg2"
   xml:space="preserve"
   width="512"
   height="512"
   viewBox="0 0 512 512"
   sodipodi:docname="icon.svg"
   inkscape:version="1.0.1 (3bc2e813f5, 2020-09-07)"><metadata
     id="metadata8"><rdf:RDF><cc:Work
         rdf:about=""><dc:format>image/svg+xml</dc:format><dc:type
           rdf:resource="http://purl.org/dc/dcmitype/StillImage" /><dc:title></dc:title></cc:Work></rdf:RDF></metadata><defs
     id="defs6" /><sodipodi:namedview
     pagecolor="#ffffff"
     bordercolor="#666666"
     borderopacity="1"
     objecttolerance="10"
     gridtolerance="10"
     guidetolerance="10"
     inkscape:pageopacity="0"
     inkscape:pageshadow="2"
     inkscape:window-width="1920"
     inkscape:window-height="1016"
     id="namedview4"
     showgrid="false"
     fit-margin-top="0"
     fit-margin-left="0"
     fit-margin-right="0"
     fit-margin-bottom="0"
     inkscape:zoom="0.60729103"
     inkscape:cx="493.40091"
     inkscape:cy="411.80892"
     inkscape:window-x="0"
     inkscape:window-y="0"
     inkscape:window-maximized="1"
     inkscape:current-layer="g10"
     inkscape:document-rotation="0" /><g
     id="g10"
     inkscape:groupmode="layer"
     inkscape:label="ink_ext_XXXXXX"
     transform="matrix(1.3333333,0,0,-1.3333333,-213.19272,1369.6447)"><g
       id="g1459"><rect
         style="fill:#000000;fill-opacity:1;stroke:none;stroke-width:0.916199;stroke-opacity:0.488353;stop-color:#000000"
         id="rect903"
         width="384"
         height="384"
         x="159.89455"
         y="-1027.2335"
         transform="scale(1,-1)" /><path
         d="m 358.33896,949.85285 c -0.0489,-0.0302 -11.67435,1.19594 -11.69106,-12.43866 -0.0677,-13.14331 11.64214,-11.70174 11.69106,-11.6957 v 24.13436 m -29.38078,-12.43866 c 0.5263,47.77538 43.71525,40.04806 43.774,40.0239 v -50.96861 h 14.39201 v -20.83841 c -0.003,0.0644 -7.75252,-8.55081 -23.08617,-8.39376 -35.72855,0.31004 -35.11226,38.67492 -35.07984,40.17688 m -12.29327,-59.22503 v -28.48102 h 13.49183 v -11.84408 h 17.53992 v 11.84408 h 23.23716 c 5.01086,0.0234 9.09983,-0.0832 13.03582,3.59569 3.29203,3.21678 3.13623,7.43318 3.15455,12.44407 v 12.44126 h -39.42753 v 17.09115 h -17.53992 v -17.09115 z m 12.44266,-57.41866 c 1.37856,-9.42098 9.16469,-12.72836 9.14556,-12.74124 h -8.09679 v -26.38468 h 56.96785 v 28.78241 h -27.28667 c -4.81881,0.0336 -6.98057,1.38379 -8.69396,3.14791 -2.04236,1.9874 -3.47146,5.47256 -3.44649,9.29555 v 8.09418 h -17.54073 c -0.0246,-0.007 -1.93123,-4.15662 -1.04877,-10.19413 m -0.59978,-86.5387 c 0.0441,16.0605 4.39016,35.82842 20.38865,35.82842 h 38.22775 V 741.7284 h -16.4916 c -0.0493,-0.0167 2.43023,-6.87607 4.05013,-12.14387 0.97633,-3.54656 2.97798,-6.2312 6.59467,-6.44542 3.04656,-0.27644 5.84396,3.18174 5.8468,3.14811 V 698.5526 c -0.003,-0.0351 -2.2195,-6.18428 -8.84918,-5.99474 -12.63474,0.57113 -17.28262,10.41104 -20.08262,34.63015 -1.6101,13.04889 -2.86926,14.52368 -6.14704,14.54039 -2.68966,-0.0167 -5.7351,-1.60445 -5.84784,-8.99475 0.004,-10.65237 7.21412,-9.90863 7.1956,-9.89554 v -27.13357 c -0.0101,-0.0572 -24.85814,0.26212 -24.88532,38.52726"
         style="fill:#fa481c;fill-opacity:1;fill-rule:nonzero;stroke:none;stroke-width:0.0201337"
         id="path14-1" /></g></g></svg>
