<?xml version="1.0" encoding="UTF-8" standalone="no"?>
<svg
   xmlns:dc="http://purl.org/dc/elements/1.1/"
   xmlns:cc="http://creativecommons.org/ns#"
   xmlns:rdf="http://www.w3.org/1999/02/22-rdf-syntax-ns#"
   xmlns:svg="http://www.w3.org/2000/svg"
   xmlns="http://www.w3.org/2000/svg"
   xmlns:sodipodi="http://sodipodi.sourceforge.net/DTD/sodipodi-0.dtd"
   xmlns:inkscape="http://www.inkscape.org/namespaces/inkscape"
   width="512"
   height="512"
   fill="currentColor"
   class="bi bi-music-note-beamed"
   viewBox="0 0 512 512"
   version="1.1"
   id="svg8"
   sodipodi:docname="music-note-beamed.svg"
   inkscape:version="1.0.1 (3bc2e813f5, 2020-09-07)">
  <metadata
     id="metadata14">
    <rdf:RDF>
      <cc:Work
         rdf:about="">
        <dc:format>image/svg+xml</dc:format>
        <dc:type
           rdf:resource="http://purl.org/dc/dcmitype/StillImage" />
        <dc:title></dc:title>
      </cc:Work>
    </rdf:RDF>
  </metadata>
  <defs
     id="defs12" />
  <sodipodi:namedview
     pagecolor="#ffffff"
     bordercolor="#666666"
     borderopacity="1"
     objecttolerance="10"
     gridtolerance="10"
     guidetolerance="10"
     inkscape:pageopacity="0"
     inkscape:pageshadow="2"
     inkscape:window-width="1920"
     inkscape:window-height="1016"
     id="namedview10"
     showgrid="false"
     inkscape:zoom="0.54828397"
     inkscape:cx="8"
     inkscape:cy="8"
     inkscape:window-x="0"
     inkscape:window-y="0"
     inkscape:window-maximized="1"
     inkscape:current-layer="svg8" />
  <g
     id="g842"
     style="fill:#ffffff"
     transform="matrix(19.2,0,0,19.2,102.4,102.4)">
    <path
       d="M 6,13 C 6,14.105 4.88,15 3.5,15 2.12,15 1,14.105 1,13 1,11.896 2.12,11 3.5,11 4.88,11 6,11.896 6,13 Z m 9,-2 c 0,1.105 -1.12,2 -2.5,2 C 11.12,13 10,12.105 10,11 10,9.895 11.12,9 12.5,9 13.88,9 15,9.895 15,11 Z"
       id="path2"
       style="fill:#ffffff" />
    <path
       fill-rule="evenodd"
       d="M 14,11 V 2 h 1 v 9 z M 6,3 V 13 H 5 V 3 Z"
       id="path4"
       style="fill:#ffffff" />
    <path
       d="M 5,2.905 A 1,1 0 0 1 5.9,1.91 l 8,-0.8 A 1,1 0 0 1 15,2.105 V 3 L 5,4 Z"
       id="path6"
       style="fill:#ffffff" />
  </g>
</svg>
