<?xml version="1.0" encoding="UTF-8" standalone="no"?>
<svg
   xmlns:dc="http://purl.org/dc/elements/1.1/"
   xmlns:cc="http://creativecommons.org/ns#"
   xmlns:rdf="http://www.w3.org/1999/02/22-rdf-syntax-ns#"
   xmlns:svg="http://www.w3.org/2000/svg"
   xmlns="http://www.w3.org/2000/svg"
   xmlns:sodipodi="http://sodipodi.sourceforge.net/DTD/sodipodi-0.dtd"
   xmlns:inkscape="http://www.inkscape.org/namespaces/inkscape"
   width="512"
   height="512"
   fill="currentColor"
   class="bi bi-clock"
   viewBox="0 0 512 512"
   version="1.1"
   id="svg18"
   sodipodi:docname="most-recent.svg"
   inkscape:version="1.0.1 (3bc2e813f5, 2020-09-07)">
  <metadata
     id="metadata24">
    <rdf:RDF>
      <cc:Work
         rdf:about="">
        <dc:format>image/svg+xml</dc:format>
        <dc:type
           rdf:resource="http://purl.org/dc/dcmitype/StillImage" />
        <dc:title></dc:title>
      </cc:Work>
    </rdf:RDF>
  </metadata>
  <defs
     id="defs22" />
  <sodipodi:namedview
     pagecolor="#ffffff"
     bordercolor="#666666"
     borderopacity="1"
     objecttolerance="10"
     gridtolerance="10"
     guidetolerance="10"
     inkscape:pageopacity="0"
     inkscape:pageshadow="2"
     inkscape:window-width="1920"
     inkscape:window-height="1016"
     id="namedview20"
     showgrid="false"
     inkscape:zoom="0.77539063"
     inkscape:cx="8"
     inkscape:cy="8"
     inkscape:window-x="0"
     inkscape:window-y="0"
     inkscape:window-maximized="1"
     inkscape:current-layer="svg18" />
  <g
     id="g2011"
     style="fill:#ffffff">
    <path
       d="m 256,169.6 a 9.6,9.6 0 0 0 -19.2,0 v 105.6 a 9.6,9.6 0 0 0 4.8384,8.3328 l 67.2,38.4 a 9.6,9.6 0 0 0 9.5232,-16.6656 L 256,269.632 Z"
       id="path14"
       style="stroke-width:19.2;fill:#ffffff" />
    <path
       d="m 256,409.6 a 153.6,153.6 0 1 0 0,-307.2 153.6,153.6 0 0 0 0,307.2 z M 390.4,256 a 134.4,134.4 0 1 1 -268.8,0 134.4,134.4 0 0 1 268.8,0 z"
       id="path16"
       style="stroke-width:19.2;fill:#ffffff" />
  </g>
</svg>
