<?xml version="1.0" encoding="UTF-8" standalone="no"?>
<svg
   xmlns:dc="http://purl.org/dc/elements/1.1/"
   xmlns:cc="http://creativecommons.org/ns#"
   xmlns:rdf="http://www.w3.org/1999/02/22-rdf-syntax-ns#"
   xmlns:svg="http://www.w3.org/2000/svg"
   xmlns="http://www.w3.org/2000/svg"
   xmlns:sodipodi="http://sodipodi.sourceforge.net/DTD/sodipodi-0.dtd"
   xmlns:inkscape="http://www.inkscape.org/namespaces/inkscape"
   width="512"
   height="512"
   fill="currentColor"
   class="bi bi-star"
   viewBox="0 0 512 512"
   version="1.1"
   id="svg28"
   sodipodi:docname="trending.svg"
   inkscape:version="1.0.1 (3bc2e813f5, 2020-09-07)">
  <metadata
     id="metadata34">
    <rdf:RDF>
      <cc:Work
         rdf:about="">
        <dc:format>image/svg+xml</dc:format>
        <dc:type
           rdf:resource="http://purl.org/dc/dcmitype/StillImage" />
        <dc:title></dc:title>
      </cc:Work>
    </rdf:RDF>
  </metadata>
  <defs
     id="defs32" />
  <sodipodi:namedview
     pagecolor="#ffffff"
     bordercolor="#666666"
     borderopacity="1"
     objecttolerance="10"
     gridtolerance="10"
     guidetolerance="10"
     inkscape:pageopacity="0"
     inkscape:pageshadow="2"
     inkscape:window-width="1920"
     inkscape:window-height="1016"
     id="namedview30"
     showgrid="false"
     inkscape:zoom="1.0965679"
     inkscape:cx="8"
     inkscape:cy="189.58119"
     inkscape:window-x="0"
     inkscape:window-y="0"
     inkscape:window-maximized="1"
     inkscape:current-layer="svg28" />
  <path
     d="m 157.40029,387.53944 c -1.49757,8.52464 6.91187,15.18691 14.32293,11.38538 l 84.28638,-43.31437 84.26718,43.31437 c 7.41106,3.80153 15.82049,-2.86074 14.32292,-11.36618 l -15.93569,-90.81426 67.6403,-64.43397 c 6.31668,-6.02868 3.03354,-17.04927 -5.43349,-18.23965 l -94.0398,-13.36294 -41.93199,-83.07681 a 9.8494112,9.8494112 0 0 0 -17.79806,0 l -41.93199,83.09601 -94.0398,13.36294 c -8.46704,1.19038 -11.750176,12.21097 -5.4335,18.23965 l 67.64031,64.43397 -15.9357,90.81426 z m 94.1742,-53.12538 -70.76985,36.3641 13.32455,-75.97294 a 10.847792,10.847792 0 0 0 -3.12954,-9.69582 l -55.79413,-53.18298 77.79691,-11.05899 a 10.079807,10.079807 0 0 0 7.54545,-5.52949 l 35.46172,-70.23226 35.44252,70.23226 a 10.079807,10.079807 0 0 0 7.54545,5.52949 l 77.79691,11.03979 -55.79413,53.18298 a 10.828592,10.828592 0 0 0 -3.12954,9.71502 l 13.32454,75.97294 -70.76983,-36.3641 a 9.6574149,9.6574149 0 0 0 -8.85103,0 z"
     id="path26"
     style="stroke-width:19.1996;fill:#ffffff" />
</svg>
